<svg xmlns="http://www.w3.org/2000/svg" viewBox="0 0 960 440" font-family="system-ui,-apple-system,sans-serif" font-size="13">
  <defs>
    <linearGradient id="aGrad" x1="0%" y1="0%" x2="100%" y2="0%">
      <stop offset="0%" style="stop-color:#0ea5e9"/>
      <stop offset="100%" style="stop-color:#38bdf8"/>
    </linearGradient>
  </defs>
  <rect width="960" height="440" rx="12" fill="#0f172a"/>
  <text x="480" y="28" text-anchor="middle" fill="#94a3b8" font-size="11">MCP ANALYTICS — GOVERNED ANALYTICS PLATFORM</text>

  <!-- MCP Clients -->
  <rect x="20" y="120" width="130" height="180" rx="8" fill="#1e293b" stroke="#475569"/>
  <text x="85" y="140" text-anchor="middle" fill="#94a3b8" font-size="10">MCP CLIENTS</text>
  <rect x="30" y="152" width="110" height="20" rx="3" fill="#334155"/>
  <text x="85" y="166" text-anchor="middle" fill="#f1f5f9" font-size="9">Claude / Kiro</text>
  <rect x="30" y="177" width="110" height="20" rx="3" fill="#334155"/>
  <text x="85" y="191" text-anchor="middle" fill="#f1f5f9" font-size="9">Cursor / Codex</text>
  <rect x="30" y="202" width="110" height="20" rx="3" fill="#334155"/>
  <text x="85" y="216" text-anchor="middle" fill="#f1f5f9" font-size="9">Windsurf</text>
  <rect x="30" y="227" width="110" height="20" rx="3" fill="#334155"/>
  <text x="85" y="241" text-anchor="middle" fill="#f1f5f9" font-size="9">Any MCP Client</text>

  <line x1="150" y1="210" x2="195" y2="210" stroke="#6366f1" stroke-width="2"/>
  <polygon points="195,205 205,210 195,215" fill="#6366f1"/>
  <text x="172" y="200" text-anchor="middle" fill="#6366f1" font-size="9">stdio</text>

  <!-- MCP Server -->
  <rect x="205" y="45" width="380" height="370" rx="8" fill="url(#aGrad)" opacity="0.08" stroke="#38bdf8" stroke-width="1.5"/>
  <text x="395" y="67" text-anchor="middle" fill="#38bdf8" font-size="14" font-weight="bold">mcp-analytics</text>
  <text x="395" y="83" text-anchor="middle" fill="#64748b" font-size="9">Rust · rmcp 1.7 · 28 tools · Governed</text>

  <!-- Discovery -->
  <rect x="215" y="95" width="175" height="55" rx="4" fill="#1e293b"/>
  <text x="302" y="111" text-anchor="middle" fill="#38bdf8" font-size="9">DISCOVERY (5)</text>
  <text x="302" y="125" text-anchor="middle" fill="#64748b" font-size="8">data_sources · datasets · describe</text>
  <text x="302" y="137" text-anchor="middle" fill="#64748b" font-size="8">metrics · metric_definition</text>

  <!-- Querying -->
  <rect x="400" y="95" width="175" height="55" rx="4" fill="#1e293b"/>
  <text x="487" y="111" text-anchor="middle" fill="#fbbf24" font-size="9">QUERYING (5)</text>
  <text x="487" y="125" text-anchor="middle" fill="#64748b" font-size="8">query · breakdown · compare</text>
  <text x="487" y="137" text-anchor="middle" fill="#64748b" font-size="8">events · report</text>

  <!-- Analysis -->
  <rect x="215" y="160" width="175" height="65" rx="4" fill="#1e293b"/>
  <text x="302" y="176" text-anchor="middle" fill="#34d399" font-size="9">ANALYSIS (6)</text>
  <text x="302" y="190" text-anchor="middle" fill="#64748b" font-size="8">funnel · cohort · anomalies</text>
  <text x="302" y="202" text-anchor="middle" fill="#64748b" font-size="8">forecast · explain_change</text>
  <text x="302" y="214" text-anchor="middle" fill="#64748b" font-size="8">insight_summary</text>

  <!-- Dashboard -->
  <rect x="400" y="160" width="175" height="65" rx="4" fill="#1e293b"/>
  <text x="487" y="176" text-anchor="middle" fill="#a78bfa" font-size="9">DASHBOARDS (5)</text>
  <text x="487" y="190" text-anchor="middle" fill="#64748b" font-size="8">list · get · summarize</text>
  <text x="487" y="202" text-anchor="middle" fill="#64748b" font-size="8">create · add_widget</text>
  <text x="487" y="214" text-anchor="middle" fill="#64748b" font-size="8">publish</text>

  <!-- Governance -->
  <rect x="215" y="235" width="175" height="55" rx="4" fill="#1e293b"/>
  <text x="302" y="251" text-anchor="middle" fill="#f87171" font-size="9">GOVERNANCE (5)</text>
  <text x="302" y="265" text-anchor="middle" fill="#64748b" font-size="8">validate_policy · export_risk</text>
  <text x="302" y="277" text-anchor="middle" fill="#64748b" font-size="8">request_access · audit_trail</text>

  <!-- Segments -->
  <rect x="400" y="235" width="175" height="55" rx="4" fill="#1e293b"/>
  <text x="487" y="251" text-anchor="middle" fill="#fb923c" font-size="9">SEGMENTS (2)</text>
  <text x="487" y="265" text-anchor="middle" fill="#64748b" font-size="8">get_segments</text>
  <text x="487" y="277" text-anchor="middle" fill="#64748b" font-size="8">query_segment</text>

  <!-- Policy bar -->
  <rect x="215" y="300" width="360" height="28" rx="4" fill="#1e293b" stroke="#f87171" stroke-width="0.5"/>
  <text x="395" y="318" text-anchor="middle" fill="#f87171" font-size="9">POLICY: no raw SQL · no PII export · row limits · audit logging · certification required</text>

  <!-- Arrow to backends -->
  <line x1="585" y1="200" x2="640" y2="200" stroke="#38bdf8" stroke-width="2"/>
  <polygon points="640,195 650,200 640,205" fill="#38bdf8"/>
  <text x="612" y="190" text-anchor="middle" fill="#38bdf8" font-size="9">API</text>

  <!-- Backends -->
  <rect x="650" y="80" width="240" height="260" rx="8" fill="#1e293b" stroke="#475569"/>
  <text x="770" y="105" text-anchor="middle" fill="#94a3b8" font-size="10">ANALYTICS BACKENDS</text>
  <rect x="665" y="115" width="210" height="24" rx="3" fill="#334155"/>
  <text x="770" y="131" text-anchor="middle" fill="#10b981" font-size="9">● Local API (default, seeded)</text>
  <rect x="665" y="147" width="210" height="24" rx="3" fill="#334155"/>
  <text x="770" y="163" text-anchor="middle" fill="#64748b" font-size="9">○ Mixpanel (planned)</text>
  <rect x="665" y="179" width="210" height="24" rx="3" fill="#334155"/>
  <text x="770" y="195" text-anchor="middle" fill="#64748b" font-size="9">○ PostHog (planned)</text>
  <rect x="665" y="211" width="210" height="24" rx="3" fill="#334155"/>
  <text x="770" y="227" text-anchor="middle" fill="#64748b" font-size="9">○ Amplitude (planned)</text>
  <rect x="665" y="243" width="210" height="24" rx="3" fill="#334155"/>
  <text x="770" y="259" text-anchor="middle" fill="#64748b" font-size="9">○ BigQuery (planned)</text>

  <rect x="665" y="280" width="210" height="40" rx="3" fill="#0f172a" stroke="#475569"/>
  <text x="770" y="297" text-anchor="middle" fill="#94a3b8" font-size="8">Seeded: 3 sources, 4 datasets</text>
  <text x="770" y="310" text-anchor="middle" fill="#94a3b8" font-size="8">8 metrics, 5 segments, 2 funnels</text>

  <text x="480" y="425" text-anchor="middle" fill="#475569" font-size="10">mcp-analytics v1.0.0 · 28 tools · Governed · Policy-enforced · Audit-logged</text>
</svg>
